<svg width="20" height="20" viewBox="0 0 20 20" fill="none" xmlns="http://www.w3.org/2000/svg">
<rect width="20" height="20" fill="white" style="mix-blend-mode:multiply"/>
<path fill-rule="evenodd" clip-rule="evenodd" d="M7.31226 1.6875L7.68726 2.875C8.43234 2.62415 9.21358 2.49746 9.99976 2.5V1.25C9.08523 1.23752 8.17561 1.3856 7.31226 1.6875ZM2.93726 4.875C3.46357 4.14047 4.09538 3.48761 4.81226 2.9375L5.56226 3.9375C4.94342 4.42022 4.39629 4.98839 3.93726 5.625L2.93726 4.875ZM1.68725 7.3125L2.87475 7.6875C2.6239 8.43258 2.49721 9.21383 2.49975 10H1.24975C1.23727 9.08547 1.38535 8.17585 1.68725 7.3125ZM1.68726 12.75C1.97711 13.6215 2.39866 14.4435 2.93726 15.1875L3.93726 14.4375C3.48543 13.8049 3.12755 13.1101 2.87476 12.375L1.68726 12.75ZM7.31224 18.3125C6.44072 18.0226 5.6187 17.6011 4.87474 17.0625L5.62474 16.0625C6.25737 16.5143 6.95208 16.8722 7.68724 17.125L7.31224 18.3125ZM17.0622 15.125C16.5136 15.8612 15.8609 16.5138 15.1247 17.0625L14.3747 16.0625C15.0271 15.5977 15.5974 15.0274 16.0622 14.375L17.0622 15.125ZM17.1247 12.3125L18.3122 12.6875C18.5841 11.8168 18.7314 10.912 18.7497 9.99999H17.4997C17.5023 10.7862 17.3756 11.5674 17.1247 12.3125ZM16.9998 4.8125C17.5384 5.55646 17.9599 6.37848 18.2498 7.25L17.0623 7.625C16.8095 6.88984 16.4516 6.19513 15.9998 5.5625L16.9998 4.8125ZM15.0623 2.875C14.3183 2.3364 13.4963 1.91485 12.6248 1.625L12.2498 2.8125C12.9849 3.06529 13.6796 3.42317 14.3123 3.875L15.0623 2.875ZM12.3122 17.125L12.6872 18.3125C11.8086 18.5493 10.9081 18.6959 9.99975 18.75V17.5C10.7859 17.5025 11.5672 17.3759 12.3122 17.125Z" fill="#586770"/>
</svg>
