<svg width="12" height="12" viewBox="0 0 12 12" fill="none" xmlns="http://www.w3.org/2000/svg">
<g clip-path="url(#clip0_1758_43261)">
<rect width="12" height="12" fill="white" style="mix-blend-mode:multiply"/>
<path fill-rule="evenodd" clip-rule="evenodd" d="M3.08326 10.3652C3.94662 10.9421 4.96165 11.25 6 11.25C7.39191 11.2484 8.72635 10.6948 9.71058 9.71058C10.6948 8.72635 11.2484 7.39191 11.25 6C11.25 4.96165 10.9421 3.94662 10.3652 3.08326C9.78834 2.2199 8.9684 1.54699 8.00909 1.14963C7.04978 0.752275 5.99418 0.648307 4.97578 0.85088C3.95738 1.05345 3.02192 1.55347 2.28769 2.28769C1.55347 3.02192 1.05345 3.95738 0.85088 4.97578C0.648307 5.99418 0.752275 7.04978 1.14963 8.00909C1.54699 8.9684 2.2199 9.78834 3.08326 10.3652ZM3.49994 2.25839C4.23996 1.76392 5.10999 1.5 6 1.5C7.19306 1.50136 8.33686 1.9759 9.18048 2.81952C10.0241 3.66314 10.4986 4.80695 10.5 6C10.5 6.89002 10.2361 7.76005 9.74162 8.50007C9.24715 9.24009 8.54434 9.81686 7.72208 10.1575C6.89981 10.4981 5.99501 10.5872 5.1221 10.4135C4.24918 10.2399 3.44736 9.81132 2.81802 9.18198C2.18869 8.55265 1.7601 7.75082 1.58647 6.87791C1.41284 6.00499 1.50195 5.10019 1.84254 4.27793C2.18314 3.45566 2.75992 2.75286 3.49994 2.25839ZM9.75 6C9.75 8.07107 8.07107 9.75 6 9.75C3.92893 9.75 2.25 8.07107 2.25 6C2.25 3.92893 3.92893 2.25 6 2.25C8.07107 2.25 9.75 3.92893 9.75 6Z" fill="#231F20"/>
</g>
<defs>
<clipPath id="clip0_1758_43261">
<rect width="12" height="12" fill="white"/>
</clipPath>
</defs>
</svg>
