<svg width="16" height="16" viewBox="0 0 16 16" fill="none" xmlns="http://www.w3.org/2000/svg">
<rect width="16" height="16" fill="white" style="mix-blend-mode:multiply"/>
<path fill-rule="evenodd" clip-rule="evenodd" d="M4.11101 13.8203C5.26216 14.5895 6.61553 15 8 15C9.85588 14.9979 11.6351 14.2597 12.9474 12.9474C14.2597 11.6351 14.9979 9.85588 15 8C15 6.61553 14.5895 5.26216 13.8203 4.11101C13.0511 2.95987 11.9579 2.06266 10.6788 1.53285C9.3997 1.00303 7.99224 0.86441 6.63437 1.13451C5.2765 1.4046 4.02922 2.07129 3.05026 3.05026C2.07129 4.02922 1.4046 5.2765 1.13451 6.63437C0.86441 7.99224 1.00303 9.3997 1.53285 10.6788C2.06266 11.9579 2.95987 13.0511 4.11101 13.8203ZM4.66658 3.01119C5.65328 2.3519 6.81331 2 8 2C9.59074 2.00182 11.1158 2.63454 12.2406 3.75936C13.3655 4.88419 13.9982 6.40926 14 8C14 9.18669 13.6481 10.3467 12.9888 11.3334C12.3295 12.3201 11.3925 13.0892 10.2961 13.5433C9.19975 13.9974 7.99335 14.1162 6.82946 13.8847C5.66558 13.6532 4.59648 13.0818 3.75736 12.2426C2.91825 11.4035 2.3468 10.3344 2.11529 9.17054C1.88378 8.00666 2.0026 6.80026 2.45673 5.7039C2.91085 4.60755 3.67989 3.67047 4.66658 3.01119ZM8 13C7.29667 12.9995 6.60133 12.8509 5.95925 12.5638C5.31718 12.2767 4.74278 11.8576 4.27345 11.3337L5.01845 10.6667C5.46327 11.164 6.02543 11.5422 6.65373 11.7667C7.28202 11.9912 7.95651 12.055 8.61576 11.9523C9.27502 11.8495 9.8981 11.5835 10.4283 11.1784C10.9584 10.7734 11.3789 10.2421 11.6513 9.63303C11.9237 9.02396 12.0394 8.35642 11.9879 7.6912C11.9364 7.02598 11.7193 6.38421 11.3564 5.82432C10.9934 5.26444 10.4962 4.80423 9.91003 4.4856C9.32382 4.16697 8.66722 4.00003 8 4V3C9.32609 3 10.5979 3.52678 11.5355 4.46447C12.4732 5.40215 13 6.67392 13 8C13 9.32608 12.4732 10.5979 11.5355 11.5355C10.5979 12.4732 9.32609 13 8 13ZM8 11C7.40666 11 6.82664 10.8241 6.33329 10.4944C5.83995 10.1648 5.45543 9.69623 5.22837 9.14805C5.0013 8.59987 4.94189 7.99667 5.05765 7.41473C5.17341 6.83279 5.45913 6.29824 5.87868 5.87868C6.29824 5.45912 6.83279 5.1734 7.41473 5.05765C7.99668 4.94189 8.59988 5.0013 9.14806 5.22836C9.69623 5.45543 10.1648 5.83994 10.4944 6.33329C10.8241 6.82664 11 7.40666 11 8C10.9991 8.79538 10.6828 9.55793 10.1203 10.1203C9.55793 10.6828 8.79538 10.9991 8 11ZM8 6C7.60444 6 7.21776 6.1173 6.88886 6.33706C6.55997 6.55683 6.30362 6.86918 6.15225 7.23463C6.00087 7.60009 5.96126 8.00222 6.03843 8.39018C6.1156 8.77814 6.30609 9.13451 6.58579 9.41421C6.8655 9.69392 7.22186 9.8844 7.60982 9.96157C7.99779 10.0387 8.39992 9.99914 8.76537 9.84776C9.13082 9.69639 9.44318 9.44004 9.66294 9.11114C9.88271 8.78224 10 8.39556 10 8C9.99941 7.46975 9.7885 6.96139 9.41356 6.58645C9.03862 6.2115 8.53026 6.0006 8 6Z" fill="#F47621"/>
</svg>
