<svg width="198" height="40" viewBox="0 0 198 40" fill="none" xmlns="http://www.w3.org/2000/svg">
<g clip-path="url(#clip0_2332_3842)">
<path d="M22.9386 12.5938L25.6637 23.293L28.4126 12.5938H31.0074L27.0737 27.1675H24.5144L21.7537 16.9066L19.0167 27.1793H16.4574L12.5 12.5938H15.1778L17.9385 23.293L20.64 12.5938H22.9386Z" fill="#F4F4F4"/>
<path d="M30.4026 21.8615C30.4026 18.7335 32.5116 16.3164 35.4738 16.3164C38.4359 16.3164 40.2014 18.6506 40.2014 21.5772V22.3947H32.7249C32.9026 24.2194 34.0046 25.3332 35.5686 25.3332C36.7653 25.3332 37.725 24.7289 38.0449 23.627L40.1303 24.4208C39.3838 26.2929 37.6895 27.4067 35.5567 27.4067C32.5116 27.4067 30.3789 25.1554 30.3789 21.8615H30.4026ZM32.8553 20.5582H37.7487C37.725 19.3852 37.0023 18.3662 35.4501 18.3662C34.1941 18.3662 33.2107 19.1127 32.8553 20.5582Z" fill="#F4F4F4"/>
<path d="M41.0547 24.2194C41.0547 22.1933 42.5832 21.2928 44.633 20.8663L47.5714 20.262V20.0842C47.5714 19.0653 47.0382 18.4373 45.7467 18.4373C44.5856 18.4373 43.9813 18.9705 43.6969 20.0013L41.3983 19.4681C41.9315 17.7027 43.4836 16.3164 45.8415 16.3164C48.4008 16.3164 49.9411 17.5368 49.9411 19.9895V24.5749C49.9411 25.1791 50.2018 25.3687 50.8771 25.2858V27.1697C49.1117 27.3711 48.1757 27.0275 47.8084 26.1507C47.133 26.8972 46.0192 27.3474 44.6448 27.3474C42.6187 27.3474 41.0547 26.1152 41.0547 24.1957V24.2194ZM47.5714 22.134L45.2728 22.6198C44.2419 22.845 43.4718 23.1649 43.4718 24.1246C43.4718 24.954 44.0761 25.4279 45.0121 25.4279C46.3154 25.4279 47.5714 24.7407 47.5714 23.4374V22.134Z" fill="#F4F4F4"/>
<path d="M54.6332 27.1793H52.1924V12.5938H54.6332V27.1675V27.1793Z" fill="#F4F4F4"/>
<path d="M57.0035 18.5921H55.5225V16.5186H57.0035V13.3906H59.3969V16.5186H61.6245V18.5921H59.3969V24.1136C59.3969 25.0733 59.942 25.1681 60.8188 25.1681C61.2216 25.1681 61.4467 25.1444 61.814 25.1089V27.1587C61.3638 27.2416 60.7595 27.3008 60.1315 27.3008C58.1054 27.3008 57.0035 26.6729 57.0035 24.5046V18.5921Z" fill="#F4F4F4"/>
<path d="M63.2355 12.5938H65.6763V17.6531C66.2806 16.9422 67.2403 16.3142 68.6147 16.3142C70.8541 16.3142 72.193 17.8545 72.193 20.1531V27.1793H69.7522V20.864C69.7522 19.5489 69.219 18.5891 67.8801 18.5891C66.7782 18.5891 65.6644 19.4067 65.6644 20.9233V27.1793H63.2236V12.5938H63.2355Z" fill="#F4F4F4"/>
<path d="M84.54 27.1793L80.7247 15.9113V27.1793H78.3076V12.5938H81.8859L85.6419 23.7551L89.386 12.5938H92.8813V27.1675H90.4642V15.9113L86.649 27.1793H84.54Z" fill="#F4F4F4"/>
<path d="M94.3496 24.2194C94.3496 22.1933 95.8781 21.2928 97.9279 20.8663L100.866 20.262V20.0842C100.866 19.0653 100.333 18.4373 99.0416 18.4373C97.8805 18.4373 97.2762 18.9705 96.9918 20.0013L94.6932 19.4681C95.2264 17.7027 96.7786 16.3164 99.1364 16.3164C101.696 16.3164 103.236 17.5368 103.236 19.9895V24.5749C103.236 25.1791 103.497 25.3687 104.172 25.2858V27.1697C102.407 27.3711 101.471 27.0275 101.103 26.1507C100.428 26.8972 99.3142 27.3474 97.9397 27.3474C95.9136 27.3474 94.3496 26.1152 94.3496 24.1957V24.2194ZM100.866 22.134L98.5677 22.6198C97.5369 22.845 96.7667 23.1649 96.7667 24.1246C96.7667 24.954 97.371 25.4279 98.307 25.4279C99.6104 25.4279 100.866 24.7407 100.866 23.4374V22.134Z" fill="#F4F4F4"/>
<path d="M109.35 23.4824L106.85 27.1792H104.208L107.964 21.6578L104.469 16.5273H107.229L109.421 19.8568L111.649 16.5273H114.303L110.808 21.6578L114.587 27.1792H111.85L109.338 23.4824H109.35Z" fill="#F4F4F4"/>
<path d="M115.44 12.5938H117.952V15.0938H115.44V12.5938ZM117.917 27.1675H115.476V16.5156H117.917V27.1793V27.1675Z" fill="#F4F4F4"/>
<path d="M122.502 27.1815H120.062V16.5178H122.502V17.6553C123.095 16.9444 124.007 16.3164 125.429 16.3164C126.709 16.3164 127.656 16.8851 128.249 17.7975C128.901 17.1103 129.92 16.3164 131.555 16.3164C133.747 16.3164 135.168 17.8567 135.168 20.1553V27.1815H132.728V20.8663C132.728 19.5511 132.242 18.5913 130.939 18.5913C129.908 18.5913 128.829 19.4089 128.829 20.9255V27.1815H126.389V20.8663C126.389 19.5511 125.903 18.5913 124.6 18.5913C123.569 18.5913 122.49 19.4089 122.49 20.9255V27.1815H122.502Z" fill="#F4F4F4"/>
<path d="M137.194 12.5938H139.706V15.0938H137.194V12.5938ZM139.671 27.1675H137.23V16.5156H139.671V27.1793V27.1675Z" fill="#F4F4F4"/>
<path d="M142.538 23.6861C143.166 24.7169 144.386 25.416 145.618 25.416C146.649 25.416 147.609 25.0487 147.609 24.1008C147.609 23.1529 146.72 23.0818 145.026 22.7382C143.344 22.3946 141.412 21.968 141.412 19.6931C141.412 17.75 143.118 16.3281 145.571 16.3281C147.443 16.3281 149.102 17.1575 149.872 18.3424L148.225 19.8234C147.621 18.8756 146.602 18.3187 145.429 18.3187C144.434 18.3187 143.782 18.7689 143.782 19.4798C143.782 20.25 144.552 20.3922 145.891 20.6765C147.704 21.0675 149.967 21.4467 149.967 23.8875C149.967 26.0439 148 27.4184 145.583 27.4184C143.616 27.4184 141.649 26.6245 140.689 25.1671L142.514 23.7098L142.538 23.6861Z" fill="#F4F4F4"/>
<path d="M150.773 21.8615C150.773 18.7335 152.882 16.3164 155.844 16.3164C158.806 16.3164 160.571 18.6506 160.571 21.5772V22.3947H153.095C153.273 24.2194 154.375 25.3332 155.939 25.3332C157.135 25.3332 158.095 24.7289 158.415 23.627L160.5 24.4208C159.754 26.2929 158.06 27.4067 155.927 27.4067C152.882 27.4067 150.749 25.1554 150.749 21.8615H150.773ZM153.225 20.5582H158.119C158.095 19.3852 157.372 18.3662 155.82 18.3662C154.564 18.3662 153.581 19.1127 153.225 20.5582Z" fill="#F4F4F4"/>
<path d="M168.049 18.9334C167.741 18.8978 167.504 18.8741 167.16 18.8741C165.62 18.8741 164.435 19.8694 164.435 21.5756V27.18H161.994V16.5163H164.435V18.104C164.897 17.1087 165.999 16.457 167.362 16.457C167.646 16.457 167.871 16.4807 168.049 16.4926V18.9334Z" fill="#F4F4F4"/>
<path d="M185.666 13.1625V23.53H183.225V16.7526L172.822 27.1675H169.362L181.507 15.0227H174.73V12.5938H185.097C185.405 12.5938 185.666 12.8426 185.666 13.1625Z" fill="#8E9FA3"/>
</g>
<defs>
<clipPath id="clip0_2332_3842">
<rect width="173" height="16" fill="white" transform="translate(12.5 12)"/>
</clipPath>
</defs>
</svg>
